<?xml version="1.0" standalone="no"?><!DOCTYPE svg PUBLIC "-//W3C//DTD SVG 1.1//EN" "http://www.w3.org/Graphics/SVG/1.1/DTD/svg11.dtd"><svg t="1664525986692" class="icon" viewBox="0 0 1024 1024" version="1.1" xmlns="http://www.w3.org/2000/svg" p-id="21823" xmlns:xlink="http://www.w3.org/1999/xlink" width="300" height="300"><path d="M768 426.666667H256c-23.466667 0-42.666667 19.2-42.666667 42.666666s19.2 42.666667 42.666667 42.666667h512c23.466667 0 42.666667-19.2 42.666667-42.666667s-19.2-42.666667-42.666667-42.666666zM768 640H256c-23.466667 0-42.666667 19.2-42.666667 42.666667s19.2 42.666667 42.666667 42.666666h512c23.466667 0 42.666667-19.2 42.666667-42.666666s-19.2-42.666667-42.666667-42.666667z" p-id="21824"></path><path d="M888.746667 190.293333c-0.426667-0.426667-0.426667-0.853333-0.853334-1.28L750.933333 67.84c-18.773333-16.213333-42.24-25.173333-66.986666-25.173333H340.053333c-24.746667 0-48.213333 8.96-66.56 25.173333L136.106667 189.013333c-0.426667 0.426667-0.426667 0.853333-0.853334 1.28C80.64 218.88 42.666667 275.626667 42.666667 341.333333v469.333334c0 94.293333 76.373333 170.666667 170.666666 170.666666h597.333334c94.293333 0 170.666667-76.373333 170.666666-170.666666V341.333333c0-65.706667-37.973333-122.453333-92.586666-151.04zM340.053333 128h343.893334c3.84 0 7.253333 1.28 10.24 3.84L738.133333 170.666667H285.866667l43.946666-38.826667c2.986667-2.56 6.4-3.84 10.24-3.84zM896 810.666667c0 46.933333-38.4 85.333333-85.333333 85.333333H213.333333c-46.933333 0-85.333333-38.4-85.333333-85.333333V341.333333c0-46.933333 38.4-85.333333 85.333333-85.333333h597.333334c46.933333 0 85.333333 38.4 85.333333 85.333333v469.333334z" p-id="21825"></path></svg>