<?xml version="1.0" standalone="no"?><!DOCTYPE svg PUBLIC "-//W3C//DTD SVG 1.1//EN" "http://www.w3.org/Graphics/SVG/1.1/DTD/svg11.dtd"><svg t="1667653496158" class="icon" viewBox="0 0 1024 1024" version="1.1" xmlns="http://www.w3.org/2000/svg" p-id="19429" xmlns:xlink="http://www.w3.org/1999/xlink" width="300" height="300"><path d="M648.533333 648.533333c-3.413333 0-6.826667 0-10.24-3.413333l-136.533333-102.4c-3.413333-3.413333-6.826667-6.826667-6.826667-13.653333v-307.2c0-10.24 6.826667-17.066667 17.066667-17.066667s17.066667 6.826667 17.066667 17.066667v300.373333l129.706666 95.573333c6.826667 6.826667 10.24 17.066667 3.413334 23.893334-3.413333 3.413333-6.826667 6.826667-13.653334 6.826666z" fill="" p-id="19430"></path><path d="M512 921.6c-170.666667 0-324.266667-109.226667-382.293333-269.653333-3.413333-10.24 0-17.066667 10.24-20.48 10.24-3.413333 17.066667 0 20.48 10.24C215.04 788.48 354.986667 887.466667 512 887.466667c204.8 0 375.466667-167.253333 375.466667-375.466667 0-10.24 6.826667-17.066667 17.066666-17.066667s17.066667 6.826667 17.066667 17.066667c0 225.28-184.32 409.6-409.6 409.6zM119.466667 529.066667c-6.826667 0-17.066667-6.826667-17.066667-17.066667C102.4 286.72 286.72 102.4 512 102.4c170.666667 0 324.266667 109.226667 382.293333 269.653333 3.413333 10.24 0 17.066667-10.24 20.48-10.24 3.413333-17.066667 0-20.48-10.24C808.96 235.52 669.013333 136.533333 512 136.533333 307.2 136.533333 136.533333 303.786667 136.533333 512c0 10.24-6.826667 17.066667-17.066666 17.066667z" fill="" p-id="19431"></path><path d="M119.466667 563.2c-3.413333 0-10.24 0-13.653334-3.413333L20.48 474.453333c-6.826667-6.826667-6.826667-17.066667 0-23.893333s17.066667-6.826667 23.893333 0l71.68 71.68 71.68-71.68c6.826667-6.826667 17.066667-6.826667 23.893334 0s6.826667 17.066667 0 23.893333l-85.333334 85.333334c3.413333 3.413333-3.413333 3.413333-6.826666 3.413333z" fill="" p-id="19432"></path><path d="M989.866667 580.266667c-3.413333 0-10.24 0-13.653334-3.413334l-71.68-71.68-71.68 71.68c-6.826667 6.826667-17.066667 6.826667-23.893333 0s-6.826667-17.066667 0-23.893333l85.333333-85.333333c6.826667-6.826667 17.066667-6.826667 23.893334 0l85.333333 85.333333c6.826667 6.826667 6.826667 17.066667 0 23.893333-3.413333 3.413333-10.24 3.413333-13.653333 3.413334z" fill="" p-id="19433"></path></svg>