<?xml version="1.0" standalone="no"?><!DOCTYPE svg PUBLIC "-//W3C//DTD SVG 1.1//EN" "http://www.w3.org/Graphics/SVG/1.1/DTD/svg11.dtd"><svg t="1659531228084" class="icon" viewBox="0 0 1024 1024" version="1.1" xmlns="http://www.w3.org/2000/svg" p-id="30479" xmlns:xlink="http://www.w3.org/1999/xlink" width="200" height="200"><defs><style type="text/css">@font-face { font-family: feedback-iconfont; src: url("//at.alicdn.com/t/font_1031158_u69w8yhxdu.woff2?t=1630033759944") format("woff2"), url("//at.alicdn.com/t/font_1031158_u69w8yhxdu.woff?t=1630033759944") format("woff"), url("//at.alicdn.com/t/font_1031158_u69w8yhxdu.ttf?t=1630033759944") format("truetype"); }
</style></defs><path d="M512 268.8c-57.6 0-102.4 44.8-102.4 102.4 0 57.6 44.8 102.4 102.4 102.4 57.6 0 102.4-44.8 102.4-102.4 0-57.6-44.8-102.4-102.4-102.4z" p-id="30480"></path><path d="M998.4 147.2L524.8 0h-25.6L25.6 147.2c-19.2 6.4-25.6 19.2-25.6 32v377.6c0 160 102.4 307.2 268.8 377.6L486.4 1024h32l230.4-96c166.4-64 275.2-211.2 275.2-377.6V179.2c0-12.8-6.4-25.6-25.6-32zM576 563.2c-6.4 6.4-12.8 6.4-12.8 12.8v83.2c0 6.4 6.4 12.8 12.8 12.8h25.6c6.4 0 12.8 6.4 12.8 12.8v70.4c0 6.4-6.4 12.8-12.8 12.8H576c-6.4 0-12.8 6.4-12.8 12.8v25.6c0 6.4-6.4 12.8-12.8 12.8H473.6c-6.4 0-12.8-6.4-12.8-12.8V576c0-6.4-6.4-12.8-6.4-12.8-83.2-25.6-140.8-102.4-140.8-192C307.2 256 403.2 166.4 512 166.4c115.2 0 204.8 89.6 204.8 204.8 0 89.6-64 172.8-140.8 192z" p-id="30481"></path></svg>