<?xml version="1.0" standalone="no"?><!DOCTYPE svg PUBLIC "-//W3C//DTD SVG 1.1//EN" "http://www.w3.org/Graphics/SVG/1.1/DTD/svg11.dtd"><svg t="1660141250812" class="icon" viewBox="0 0 1024 1024" version="1.1" xmlns="http://www.w3.org/2000/svg" p-id="2487" xmlns:xlink="http://www.w3.org/1999/xlink" width="300" height="300"><defs><style type="text/css">@font-face { font-family: feedback-iconfont; src: url("//at.alicdn.com/t/font_1031158_u69w8yhxdu.woff2?t=1630033759944") format("woff2"), url("//at.alicdn.com/t/font_1031158_u69w8yhxdu.woff?t=1630033759944") format("woff"), url("//at.alicdn.com/t/font_1031158_u69w8yhxdu.ttf?t=1630033759944") format("truetype"); }
</style></defs><path d="M128 128l0 768 768 0L896 128 128 128zM864 704 640 704l0 160L384 864 384 704 160 704 160 160l704 0L864 704z" p-id="2488"></path><path d="M224 230.4l576 0 0 32-576 0 0-32Z" p-id="2489"></path><path d="M224 358.4l576 0 0 32-576 0 0-32Z" p-id="2490"></path><path d="M224 499.2l576 0 0 32-576 0 0-32Z" p-id="2491"></path></svg>