<?xml version="1.0" standalone="no"?><!DOCTYPE svg PUBLIC "-//W3C//DTD SVG 1.1//EN" "http://www.w3.org/Graphics/SVG/1.1/DTD/svg11.dtd"><svg t="1659535119968" class="icon" viewBox="0 0 1024 1024" version="1.1" xmlns="http://www.w3.org/2000/svg" p-id="84915" xmlns:xlink="http://www.w3.org/1999/xlink" width="300" height="300"><defs><style type="text/css">@font-face { font-family: feedback-iconfont; src: url("//at.alicdn.com/t/font_1031158_u69w8yhxdu.woff2?t=1630033759944") format("woff2"), url("//at.alicdn.com/t/font_1031158_u69w8yhxdu.woff?t=1630033759944") format("woff"), url("//at.alicdn.com/t/font_1031158_u69w8yhxdu.ttf?t=1630033759944") format("truetype"); }
</style></defs><path d="M947.2 114.688H766.976v87.04H640v-86.016h-83.968v86.016H425.984V112.64l-84.992 1.024v87.04H212.992V112.64l-136.192 2.048c-43.008 0-76.8 35.84-76.8 78.848v726.016c0 44.032 34.816 78.848 76.8 78.848h869.376c43.008 0 76.8-35.84 76.8-78.848V193.536c0-20.48-8.192-40.96-22.528-55.296-13.312-15.36-32.768-23.552-53.248-23.552zM340.992 289.792h44.032v45.056h-44.032v-45.056z m-171.008 0h44.032v45.056h-44.032v-45.056z m-84.992 0h44.032v45.056H84.992v-45.056zM215.04 866.304h-88.064v-44.032H215.04v44.032z m0-89.088h-88.064v-44.032H215.04v44.032z m0-88.064h-88.064V645.12H215.04v44.032z m0-89.088h-88.064v-44.032H215.04v44.032z m0-88.064h-88.064v-44.032H215.04V512z m40.96-222.208h43.008v45.056H256v-45.056z m130.048 576.512h-88.064v-44.032h88.064v44.032z m0-89.088h-88.064v-44.032h88.064v44.032z m0-88.064h-88.064V645.12h88.064v44.032z m0-89.088h-88.064v-44.032h88.064v44.032z m0-88.064h-88.064v-44.032h88.064V512z m39.936-222.208h43.008v45.056h-43.008v-45.056z m384 664.576s-32.768-36.864-90.112-68.608c-23.552-13.312-48.128-22.528-72.704-30.72-100.352-28.672-172.032-58.368-176.128-109.568-3.072-31.744 29.696-37.888 70.656-25.6 40.96 11.264 78.848 52.224 92.16 31.744 13.312-20.48-46.08-115.712-103.424-202.752s-72.704-154.624-53.248-165.888c18.432-11.264 67.584 10.24 89.088 60.416 21.504 49.152 67.584 89.088 72.704 100.352 5.12 11.264-8.192-69.632 29.696-72.704 37.888-3.072 57.344 52.224 57.344 52.224s-18.432-54.272 16.384-57.344c33.792-3.072 65.536 49.152 65.536 49.152s-9.216-62.464 31.744-46.08c43.008 17.408 27.648 59.392 67.584 129.024 12.288 21.504 24.576 49.152 34.816 76.8 23.552 64.512 38.912 131.072 38.912 131.072L809.984 954.368zM509.952 25.6h-40.96v132.096h40.96V25.6z m214.016 0h-40.96v132.096h40.96V25.6zM296.96 25.6h-40.96v132.096h40.96V25.6z" p-id="84916"></path></svg>