<?xml version="1.0" standalone="no"?><!DOCTYPE svg PUBLIC "-//W3C//DTD SVG 1.1//EN" "http://www.w3.org/Graphics/SVG/1.1/DTD/svg11.dtd"><svg t="1660031218259" class="icon" viewBox="0 0 1024 1024" version="1.1" xmlns="http://www.w3.org/2000/svg" p-id="7697" xmlns:xlink="http://www.w3.org/1999/xlink" width="300" height="300"><defs><style type="text/css">@font-face { font-family: feedback-iconfont; src: url("//at.alicdn.com/t/font_1031158_u69w8yhxdu.woff2?t=1630033759944") format("woff2"), url("//at.alicdn.com/t/font_1031158_u69w8yhxdu.woff?t=1630033759944") format("woff"), url("//at.alicdn.com/t/font_1031158_u69w8yhxdu.ttf?t=1630033759944") format("truetype"); }
</style></defs><path d="M845.4 345.5H734v-70.2c0-56.6-23.5-109.7-66-149.5C626 86.6 570.5 65 511.5 65S397 86.6 355.1 125.7c-42.6 39.8-66 92.9-66 149.5v70.2H178.3c-63.5 0-115 51.5-115 115v385.2c0 63.5 51.5 115 115 115h667c63.5 0 115-51.5 115-115V460.5c0.1-63.5-51.4-115-114.9-115zM361 275.2C361 199 428.5 137 511.5 137S662 199 662 275.2v70.2H361v-70.2z m527.4 570.5c0 23.7-19.3 43-43 43h-667c-23.7 0-43-19.3-43-43V460.5c0-23.7 19.3-43 43-43h667c23.7 0 43 19.3 43 43v385.2z" p-id="7698"></path><path d="M512.1 492.3c-64.2 0-116.2 52-116.2 116.2 0 51.6 33.6 95.3 80.1 110.4v59.8c0 19.9 16.1 36 36 36s36-16.1 36-36V719c46.6-15.1 80.3-58.9 80.3-110.5 0-64.1-52-116.2-116.2-116.2z m0 160.4c-24.4 0-44.2-19.8-44.2-44.2s19.8-44.2 44.2-44.2 44.2 19.8 44.2 44.2-19.8 44.2-44.2 44.2z" p-id="7699"></path></svg>