<?xml version="1.0" standalone="no"?><!DOCTYPE svg PUBLIC "-//W3C//DTD SVG 1.1//EN" "http://www.w3.org/Graphics/SVG/1.1/DTD/svg11.dtd"><svg t="1659533441636" class="icon" viewBox="0 0 1024 1024" version="1.1" xmlns="http://www.w3.org/2000/svg" p-id="29951" xmlns:xlink="http://www.w3.org/1999/xlink" width="300" height="300"><defs><style type="text/css">@font-face { font-family: feedback-iconfont; src: url("//at.alicdn.com/t/font_1031158_u69w8yhxdu.woff2?t=1630033759944") format("woff2"), url("//at.alicdn.com/t/font_1031158_u69w8yhxdu.woff?t=1630033759944") format("woff"), url("//at.alicdn.com/t/font_1031158_u69w8yhxdu.ttf?t=1630033759944") format("truetype"); }
</style></defs><path d="M569.56 531.47l-83.1 83.11-77.25-77.26 83.1-83.1-50.91-50.91-83.11 83.1-46.17-46.17L176.35 576c-66.28 66.28-73.95 169-23.06 243.68L64 908.94l51 50.91 89.25-89.26c74.73 50.9 177.4 43.22 243.68-23.06l135.72-135.77-46.28-46.27 83.1-83.1zM959.81 115.21L908.9 64.3l-89.25 89.25c-74.65-50.61-177.13-42.85-243.3 23.32L440.58 312.63l271.53 271.53L847.88 448.4c66.39-66.39 74-169.3 22.81-244.06z" p-id="29952"></path></svg>