<?xml version="1.0" standalone="no"?><!DOCTYPE svg PUBLIC "-//W3C//DTD SVG 1.1//EN" "http://www.w3.org/Graphics/SVG/1.1/DTD/svg11.dtd"><svg t="1659534917483" class="icon" viewBox="0 0 1024 1024" version="1.1" xmlns="http://www.w3.org/2000/svg" p-id="79700" xmlns:xlink="http://www.w3.org/1999/xlink" width="300" height="300"><defs><style type="text/css">@font-face { font-family: feedback-iconfont; src: url("//at.alicdn.com/t/font_1031158_u69w8yhxdu.woff2?t=1630033759944") format("woff2"), url("//at.alicdn.com/t/font_1031158_u69w8yhxdu.woff?t=1630033759944") format("woff"), url("//at.alicdn.com/t/font_1031158_u69w8yhxdu.ttf?t=1630033759944") format("truetype"); }
</style></defs><path d="M912 400h-100.16v224l-35.84 32h-320v120.96a48 48 0 0 0 48 48h61.76l64 71.36a49.28 49.28 0 0 0 35.84 15.68 47.04 47.04 0 0 0 32-12.16l85.12-74.88h128a48 48 0 0 0 48-48V448a48 48 0 0 0-46.72-48z" p-id="79701"></path><path d="M708.16 112H112A48 48 0 0 0 64 160v404.8a48 48 0 0 0 48 48h106.88L295.04 704a48.96 48.96 0 0 0 33.92 16.96h2.56a47.68 47.68 0 0 0 32-13.12l99.2-94.08h244.48a48 48 0 0 0 48-48V160a48 48 0 0 0-47.04-48zM256 416a48 48 0 1 1 48-48A48 48 0 0 1 256 416z m144 0a48 48 0 1 1 48-48 48 48 0 0 1-48 48z m144 0a48 48 0 1 1 48-48A48 48 0 0 1 544 416z" p-id="79702"></path></svg>