<?xml version="1.0" standalone="no"?><!DOCTYPE svg PUBLIC "-//W3C//DTD SVG 1.1//EN" "http://www.w3.org/Graphics/SVG/1.1/DTD/svg11.dtd"><svg t="1659531551467" class="icon" viewBox="0 0 1024 1024" version="1.1" xmlns="http://www.w3.org/2000/svg" p-id="40236" xmlns:xlink="http://www.w3.org/1999/xlink" width="200" height="200"><defs><style type="text/css">@font-face { font-family: feedback-iconfont; src: url("//at.alicdn.com/t/font_1031158_u69w8yhxdu.woff2?t=1630033759944") format("woff2"), url("//at.alicdn.com/t/font_1031158_u69w8yhxdu.woff?t=1630033759944") format("woff"), url("//at.alicdn.com/t/font_1031158_u69w8yhxdu.ttf?t=1630033759944") format("truetype"); }
</style></defs><path d="M354.472252 837.981041 124.188984 915.718135l113.873993-132.352865c-106.369082-69.091956-175.105878-177.471274-175.105878-298.95251 0-207.883055 201.215576-377.407118 447.923708-377.407118 246.706133 0 447.92011 169.524063 447.92011 377.407118 0 207.868665-201.213977 377.380136-447.92011 377.380136C455.910077 861.792896 403.215004 853.359414 354.472252 837.981041L354.472252 837.981041 354.472252 837.981041zM309.358839 421.193223c-30.373807 0-54.994114 24.632299-54.994114 54.998511 0 30.374806 24.620307 55.03009 54.994114 55.03009 30.357418 0 54.995113-24.655284 54.995113-55.03009C364.353952 445.825322 339.716256 421.193223 309.358839 421.193223L309.358839 421.193223 309.358839 421.193223zM712.403574 421.193223c-30.352421 0-54.997512 24.632299-54.997512 54.998511 0 30.374806 24.64529 55.03009 54.997512 55.03009 30.397191 0 54.989517-24.655284 54.989517-55.03009C767.393291 445.825322 742.800965 421.193223 712.403574 421.193223L712.403574 421.193223 712.403574 421.193223zM510.880807 421.193223c-30.401388 0-54.993514 24.632299-54.993514 54.998511 0 30.374806 24.592326 55.03009 54.993514 55.03009 30.39819 0 54.994514-24.655284 54.994514-55.03009C565.875321 445.825322 541.278997 421.193223 510.880807 421.193223L510.880807 421.193223z" p-id="40237"></path></svg>