<?xml version="1.0" standalone="no"?><!DOCTYPE svg PUBLIC "-//W3C//DTD SVG 1.1//EN" "http://www.w3.org/Graphics/SVG/1.1/DTD/svg11.dtd"><svg t="1659533709228" class="icon" viewBox="0 0 1024 1024" version="1.1" xmlns="http://www.w3.org/2000/svg" p-id="33768" xmlns:xlink="http://www.w3.org/1999/xlink" width="300" height="300"><defs><style type="text/css">@font-face { font-family: feedback-iconfont; src: url("//at.alicdn.com/t/font_1031158_u69w8yhxdu.woff2?t=1630033759944") format("woff2"), url("//at.alicdn.com/t/font_1031158_u69w8yhxdu.woff?t=1630033759944") format("woff"), url("//at.alicdn.com/t/font_1031158_u69w8yhxdu.ttf?t=1630033759944") format("truetype"); }
</style></defs><path d="M126 434.9c56.3-193 179.5-330.7 404.9-350.2 15.5-1.4 37.2-0.2 55-3.5 15.3-3 33.9-14.1 51.5-21.3C708.8 30.5 866.5-21 946.2 42.2c69.1 55 56.4 188.7 13.7 276 41.5 84.4 57 179.2 44.6 272.5-200.2 8.2-433.5 1.1-628 3.6C383 698 448 777.5 544.6 788.7c94.4 11 159.6-42.4 202.5-102.6h240.1c-62.4 179.6-221 318.8-466.6 300.8-55.8-4.2-99.4-20.5-147.6-39-80.5 44.1-258.5 109.6-329.4 17.7-53.8-69.8-19.2-196.7 10.3-279.4C113.7 518.5 227.4 352.4 338.7 258c0.6-2.9 3.4-3.6 3.4-7.1-87.9 45-147.2 119.4-216.1 184zM970.1 173c-3.3-120.5-158.3-108.6-240.2-60.1 91.4 36.6 158.2 98.7 212.7 173.3 11.9-37.8 28.7-69.2 27.5-113.2zM376.4 466.7h380.9c-11-246.1-368.9-226.2-380.9 0zM95.1 898.4c19.1 109 171.4 77.2 240.2 28.3-90.3-50.8-146.7-136.6-192.2-233.6-21.1 52.5-60.7 133.4-48 205.3z" p-id="33769"></path></svg>